<?xml version="1.0" encoding="UTF-8" standalone="no"?>
<!DOCTYPE svg PUBLIC "-//W3C//DTD SVG 1.1//EN"
 "http://www.w3.org/Graphics/SVG/1.1/DTD/svg11.dtd">
<!-- Generated by graphviz version 2.43.0 (0)
 -->
<!-- Title: %3 Pages: 1 -->
<svg width="1795pt" height="476pt"
 viewBox="0.00 0.00 1794.50 476.00" xmlns="http://www.w3.org/2000/svg" xmlns:xlink="http://www.w3.org/1999/xlink">
<g id="graph0" class="graph" transform="scale(1 1) rotate(0) translate(4 472)">
<title>%3</title>
<polygon fill="white" stroke="transparent" points="-4,4 -4,-472 1790.5,-472 1790.5,4 -4,4"/>
<!-- [root] aws_eip.my_eip (expand) -->
<g id="node1" class="node">
<title>[root] aws_eip.my_eip (expand)</title>
<polygon fill="none" stroke="black" points="767,-108 639,-108 639,-72 767,-72 767,-108"/>
<text text-anchor="middle" x="703" y="-86.3" font-family="Times,serif" font-size="14.00">aws_eip.my_eip</text>
</g>
<!-- [root] provider[&quot;registry.terraform.io/hashicorp/aws&quot;] -->
<g id="node16" class="node">
<title>[root] provider[&quot;registry.terraform.io/hashicorp/aws&quot;]</title>
<polygon fill="none" stroke="black" points="777,-36 451.74,-18 777,0 1102.26,-18 777,-36"/>
<text text-anchor="middle" x="777" y="-14.3" font-family="Times,serif" font-size="14.00">provider[&quot;registry.terraform.io/hashicorp/aws&quot;]</text>
</g>
<!-- [root] aws_eip.my_eip (expand)&#45;&gt;[root] provider[&quot;registry.terraform.io/hashicorp/aws&quot;] -->
<g id="edge1" class="edge">
<title>[root] aws_eip.my_eip (expand)&#45;&gt;[root] provider[&quot;registry.terraform.io/hashicorp/aws&quot;]</title>
<path fill="none" stroke="black" d="M721.29,-71.7C730.71,-62.79 742.31,-51.81 752.49,-42.19"/>
<polygon fill="black" stroke="black" points="755.07,-44.56 759.93,-35.14 750.26,-39.47 755.07,-44.56"/>
</g>
<!-- [root] aws_instance.bastion_host (expand) -->
<g id="node2" class="node">
<title>[root] aws_instance.bastion_host (expand)</title>
<polygon fill="none" stroke="black" points="1074,-252 868,-252 868,-216 1074,-216 1074,-252"/>
<text text-anchor="middle" x="971" y="-230.3" font-family="Times,serif" font-size="14.00">aws_instance.bastion_host</text>
</g>
<!-- [root] aws_security_group.this (expand) -->
<g id="node12" class="node">
<title>[root] aws_security_group.this (expand)</title>
<polygon fill="none" stroke="black" points="1170.5,-180 981.5,-180 981.5,-144 1170.5,-144 1170.5,-180"/>
<text text-anchor="middle" x="1076" y="-158.3" font-family="Times,serif" font-size="14.00">aws_security_group.this</text>
</g>
<!-- [root] aws_instance.bastion_host (expand)&#45;&gt;[root] aws_security_group.this (expand) -->
<g id="edge2" class="edge">
<title>[root] aws_instance.bastion_host (expand)&#45;&gt;[root] aws_security_group.this (expand)</title>
<path fill="none" stroke="black" d="M996.69,-215.88C1010.29,-206.81 1027.17,-195.55 1041.86,-185.76"/>
<polygon fill="black" stroke="black" points="1043.84,-188.65 1050.22,-180.19 1039.95,-182.82 1043.84,-188.65"/>
</g>
<!-- [root] aws_subnet.my_public_subnet (expand) -->
<g id="node14" class="node">
<title>[root] aws_subnet.my_public_subnet (expand)</title>
<polygon fill="none" stroke="black" points="963,-180 731,-180 731,-144 963,-144 963,-180"/>
<text text-anchor="middle" x="847" y="-158.3" font-family="Times,serif" font-size="14.00">aws_subnet.my_public_subnet</text>
</g>
<!-- [root] aws_instance.bastion_host (expand)&#45;&gt;[root] aws_subnet.my_public_subnet (expand) -->
<g id="edge3" class="edge">
<title>[root] aws_instance.bastion_host (expand)&#45;&gt;[root] aws_subnet.my_public_subnet (expand)</title>
<path fill="none" stroke="black" d="M940.67,-215.88C924.3,-206.64 903.92,-195.13 886.35,-185.21"/>
<polygon fill="black" stroke="black" points="887.88,-182.06 877.45,-180.19 884.44,-188.15 887.88,-182.06"/>
</g>
<!-- [root] aws_instance.my_ec2_instance (expand) -->
<g id="node3" class="node">
<title>[root] aws_instance.my_ec2_instance (expand)</title>
<polygon fill="none" stroke="black" points="236,-324 0,-324 0,-288 236,-288 236,-324"/>
<text text-anchor="middle" x="118" y="-302.3" font-family="Times,serif" font-size="14.00">aws_instance.my_ec2_instance</text>
</g>
<!-- [root] aws_subnet.my_private_subnet (expand) -->
<g id="node13" class="node">
<title>[root] aws_subnet.my_private_subnet (expand)</title>
<polygon fill="none" stroke="black" points="315.5,-252 76.5,-252 76.5,-216 315.5,-216 315.5,-252"/>
<text text-anchor="middle" x="196" y="-230.3" font-family="Times,serif" font-size="14.00">aws_subnet.my_private_subnet</text>
</g>
<!-- [root] aws_instance.my_ec2_instance (expand)&#45;&gt;[root] aws_subnet.my_private_subnet (expand) -->
<g id="edge4" class="edge">
<title>[root] aws_instance.my_ec2_instance (expand)&#45;&gt;[root] aws_subnet.my_private_subnet (expand)</title>
<path fill="none" stroke="black" d="M137.28,-287.7C146.92,-279.05 158.73,-268.45 169.23,-259.03"/>
<polygon fill="black" stroke="black" points="171.84,-261.39 176.94,-252.1 167.16,-256.18 171.84,-261.39"/>
</g>
<!-- [root] aws_internet_gateway.my_internet_gateway (expand) -->
<g id="node4" class="node">
<title>[root] aws_internet_gateway.my_internet_gateway (expand)</title>
<polygon fill="none" stroke="black" points="1786.5,-180 1455.5,-180 1455.5,-144 1786.5,-144 1786.5,-180"/>
<text text-anchor="middle" x="1621" y="-158.3" font-family="Times,serif" font-size="14.00">aws_internet_gateway.my_internet_gateway</text>
</g>
<!-- [root] aws_vpc.my_vpc (expand) -->
<g id="node15" class="node">
<title>[root] aws_vpc.my_vpc (expand)</title>
<polygon fill="none" stroke="black" points="919,-108 785,-108 785,-72 919,-72 919,-108"/>
<text text-anchor="middle" x="852" y="-86.3" font-family="Times,serif" font-size="14.00">aws_vpc.my_vpc</text>
</g>
<!-- [root] aws_internet_gateway.my_internet_gateway (expand)&#45;&gt;[root] aws_vpc.my_vpc (expand) -->
<g id="edge5" class="edge">
<title>[root] aws_internet_gateway.my_internet_gateway (expand)&#45;&gt;[root] aws_vpc.my_vpc (expand)</title>
<path fill="none" stroke="black" d="M1455.09,-145.9C1292.32,-131.08 1051.3,-109.14 929.09,-98.02"/>
<polygon fill="black" stroke="black" points="929.34,-94.53 919.07,-97.1 928.71,-101.5 929.34,-94.53"/>
</g>
<!-- [root] aws_nat_gateway.my_nat_gateway (expand) -->
<g id="node5" class="node">
<title>[root] aws_nat_gateway.my_nat_gateway (expand)</title>
<polygon fill="none" stroke="black" points="850,-252 588,-252 588,-216 850,-216 850,-252"/>
<text text-anchor="middle" x="719" y="-230.3" font-family="Times,serif" font-size="14.00">aws_nat_gateway.my_nat_gateway</text>
</g>
<!-- [root] aws_nat_gateway.my_nat_gateway (expand)&#45;&gt;[root] aws_eip.my_eip (expand) -->
<g id="edge6" class="edge">
<title>[root] aws_nat_gateway.my_nat_gateway (expand)&#45;&gt;[root] aws_eip.my_eip (expand)</title>
<path fill="none" stroke="black" d="M717.07,-215.87C714.34,-191.67 709.33,-147.21 706.09,-118.39"/>
<polygon fill="black" stroke="black" points="709.53,-117.73 704.94,-108.19 702.58,-118.52 709.53,-117.73"/>
</g>
<!-- [root] aws_nat_gateway.my_nat_gateway (expand)&#45;&gt;[root] aws_subnet.my_public_subnet (expand) -->
<g id="edge7" class="edge">
<title>[root] aws_nat_gateway.my_nat_gateway (expand)&#45;&gt;[root] aws_subnet.my_public_subnet (expand)</title>
<path fill="none" stroke="black" d="M750.31,-215.88C767.2,-206.64 788.25,-195.13 806.38,-185.21"/>
<polygon fill="black" stroke="black" points="808.47,-188.06 815.57,-180.19 805.11,-181.92 808.47,-188.06"/>
</g>
<!-- [root] aws_route.private_subnet_route (expand) -->
<g id="node6" class="node">
<title>[root] aws_route.private_subnet_route (expand)</title>
<polygon fill="none" stroke="black" points="925.5,-324 680.5,-324 680.5,-288 925.5,-288 925.5,-324"/>
<text text-anchor="middle" x="803" y="-302.3" font-family="Times,serif" font-size="14.00">aws_route.private_subnet_route</text>
</g>
<!-- [root] aws_route.private_subnet_route (expand)&#45;&gt;[root] aws_nat_gateway.my_nat_gateway (expand) -->
<g id="edge8" class="edge">
<title>[root] aws_route.private_subnet_route (expand)&#45;&gt;[root] aws_nat_gateway.my_nat_gateway (expand)</title>
<path fill="none" stroke="black" d="M782.24,-287.7C771.76,-278.97 758.89,-268.24 747.5,-258.75"/>
<polygon fill="black" stroke="black" points="749.45,-255.82 739.53,-252.1 744.97,-261.19 749.45,-255.82"/>
</g>
<!-- [root] aws_route_table.my_private_rt (expand) -->
<g id="node8" class="node">
<title>[root] aws_route_table.my_private_rt (expand)</title>
<polygon fill="none" stroke="black" points="570,-252 334,-252 334,-216 570,-216 570,-252"/>
<text text-anchor="middle" x="452" y="-230.3" font-family="Times,serif" font-size="14.00">aws_route_table.my_private_rt</text>
</g>
<!-- [root] aws_route.private_subnet_route (expand)&#45;&gt;[root] aws_route_table.my_private_rt (expand) -->
<g id="edge9" class="edge">
<title>[root] aws_route.private_subnet_route (expand)&#45;&gt;[root] aws_route_table.my_private_rt (expand)</title>
<path fill="none" stroke="black" d="M717.58,-287.97C666.21,-277.72 600.7,-264.66 547.6,-254.07"/>
<polygon fill="black" stroke="black" points="547.99,-250.57 537.49,-252.05 546.62,-257.44 547.99,-250.57"/>
</g>
<!-- [root] aws_route.public_subnet_route (expand) -->
<g id="node7" class="node">
<title>[root] aws_route.public_subnet_route (expand)</title>
<polygon fill="none" stroke="black" points="1750,-252 1512,-252 1512,-216 1750,-216 1750,-252"/>
<text text-anchor="middle" x="1631" y="-230.3" font-family="Times,serif" font-size="14.00">aws_route.public_subnet_route</text>
</g>
<!-- [root] aws_route.public_subnet_route (expand)&#45;&gt;[root] aws_internet_gateway.my_internet_gateway (expand) -->
<g id="edge10" class="edge">
<title>[root] aws_route.public_subnet_route (expand)&#45;&gt;[root] aws_internet_gateway.my_internet_gateway (expand)</title>
<path fill="none" stroke="black" d="M1628.53,-215.7C1627.43,-207.98 1626.1,-198.71 1624.87,-190.11"/>
<polygon fill="black" stroke="black" points="1628.32,-189.51 1623.44,-180.1 1621.39,-190.5 1628.32,-189.51"/>
</g>
<!-- [root] aws_route_table.my_public_rt (expand) -->
<g id="node9" class="node">
<title>[root] aws_route_table.my_public_rt (expand)</title>
<polygon fill="none" stroke="black" points="1417,-180 1189,-180 1189,-144 1417,-144 1417,-180"/>
<text text-anchor="middle" x="1303" y="-158.3" font-family="Times,serif" font-size="14.00">aws_route_table.my_public_rt</text>
</g>
<!-- [root] aws_route.public_subnet_route (expand)&#45;&gt;[root] aws_route_table.my_public_rt (expand) -->
<g id="edge11" class="edge">
<title>[root] aws_route.public_subnet_route (expand)&#45;&gt;[root] aws_route_table.my_public_rt (expand)</title>
<path fill="none" stroke="black" d="M1551.18,-215.97C1503.37,-205.76 1442.46,-192.76 1392.95,-182.2"/>
<polygon fill="black" stroke="black" points="1393.4,-178.71 1382.89,-180.05 1391.94,-185.56 1393.4,-178.71"/>
</g>
<!-- [root] aws_route_table.my_private_rt (expand)&#45;&gt;[root] aws_vpc.my_vpc (expand) -->
<g id="edge12" class="edge">
<title>[root] aws_route_table.my_private_rt (expand)&#45;&gt;[root] aws_vpc.my_vpc (expand)</title>
<path fill="none" stroke="black" d="M500.25,-215.87C574.08,-189.66 714.83,-139.69 794.07,-111.56"/>
<polygon fill="black" stroke="black" points="795.64,-114.72 803.89,-108.08 793.3,-108.13 795.64,-114.72"/>
</g>
<!-- [root] aws_route_table.my_public_rt (expand)&#45;&gt;[root] aws_vpc.my_vpc (expand) -->
<g id="edge13" class="edge">
<title>[root] aws_route_table.my_public_rt (expand)&#45;&gt;[root] aws_vpc.my_vpc (expand)</title>
<path fill="none" stroke="black" d="M1193.25,-143.97C1111.45,-131.27 1001.76,-114.24 929.08,-102.96"/>
<polygon fill="black" stroke="black" points="929.49,-99.49 919.07,-101.41 928.42,-106.4 929.49,-99.49"/>
</g>
<!-- [root] aws_route_table_association.my_private_rt_association (expand) -->
<g id="node10" class="node">
<title>[root] aws_route_table_association.my_private_rt_association (expand)</title>
<polygon fill="none" stroke="black" points="662,-324 254,-324 254,-288 662,-288 662,-324"/>
<text text-anchor="middle" x="458" y="-302.3" font-family="Times,serif" font-size="14.00">aws_route_table_association.my_private_rt_association</text>
</g>
<!-- [root] aws_route_table_association.my_private_rt_association (expand)&#45;&gt;[root] aws_route_table.my_private_rt (expand) -->
<g id="edge14" class="edge">
<title>[root] aws_route_table_association.my_private_rt_association (expand)&#45;&gt;[root] aws_route_table.my_private_rt (expand)</title>
<path fill="none" stroke="black" d="M456.52,-287.7C455.86,-279.98 455.06,-270.71 454.32,-262.11"/>
<polygon fill="black" stroke="black" points="457.81,-261.77 453.47,-252.1 450.83,-262.37 457.81,-261.77"/>
</g>
<!-- [root] aws_route_table_association.my_private_rt_association (expand)&#45;&gt;[root] aws_subnet.my_private_subnet (expand) -->
<g id="edge15" class="edge">
<title>[root] aws_route_table_association.my_private_rt_association (expand)&#45;&gt;[root] aws_subnet.my_private_subnet (expand)</title>
<path fill="none" stroke="black" d="M394.24,-287.97C356.68,-277.93 309,-265.19 269.81,-254.72"/>
<polygon fill="black" stroke="black" points="270.61,-251.31 260.04,-252.11 268.8,-258.07 270.61,-251.31"/>
</g>
<!-- [root] aws_route_table_association.my_public_rt_association (expand) -->
<g id="node11" class="node">
<title>[root] aws_route_table_association.my_public_rt_association (expand)</title>
<polygon fill="none" stroke="black" points="1493.5,-252 1092.5,-252 1092.5,-216 1493.5,-216 1493.5,-252"/>
<text text-anchor="middle" x="1293" y="-230.3" font-family="Times,serif" font-size="14.00">aws_route_table_association.my_public_rt_association</text>
</g>
<!-- [root] aws_route_table_association.my_public_rt_association (expand)&#45;&gt;[root] aws_route_table.my_public_rt (expand) -->
<g id="edge16" class="edge">
<title>[root] aws_route_table_association.my_public_rt_association (expand)&#45;&gt;[root] aws_route_table.my_public_rt (expand)</title>
<path fill="none" stroke="black" d="M1295.47,-215.7C1296.57,-207.98 1297.9,-198.71 1299.13,-190.11"/>
<polygon fill="black" stroke="black" points="1302.61,-190.5 1300.56,-180.1 1295.68,-189.51 1302.61,-190.5"/>
</g>
<!-- [root] aws_route_table_association.my_public_rt_association (expand)&#45;&gt;[root] aws_subnet.my_public_subnet (expand) -->
<g id="edge17" class="edge">
<title>[root] aws_route_table_association.my_public_rt_association (expand)&#45;&gt;[root] aws_subnet.my_public_subnet (expand)</title>
<path fill="none" stroke="black" d="M1184.47,-215.97C1118.23,-205.57 1033.52,-192.27 965.54,-181.6"/>
<polygon fill="black" stroke="black" points="966.05,-178.14 955.63,-180.05 964.97,-185.06 966.05,-178.14"/>
</g>
<!-- [root] aws_security_group.this (expand)&#45;&gt;[root] aws_vpc.my_vpc (expand) -->
<g id="edge18" class="edge">
<title>[root] aws_security_group.this (expand)&#45;&gt;[root] aws_vpc.my_vpc (expand)</title>
<path fill="none" stroke="black" d="M1021.49,-143.97C989.78,-134.06 949.64,-121.51 916.39,-111.12"/>
<polygon fill="black" stroke="black" points="917.34,-107.75 906.75,-108.11 915.26,-114.43 917.34,-107.75"/>
</g>
<!-- [root] aws_subnet.my_private_subnet (expand)&#45;&gt;[root] aws_vpc.my_vpc (expand) -->
<g id="edge19" class="edge">
<title>[root] aws_subnet.my_private_subnet (expand)&#45;&gt;[root] aws_vpc.my_vpc (expand)</title>
<path fill="none" stroke="black" d="M272.07,-215.96C353.42,-197.82 486.22,-168.42 601,-144 675.63,-128.12 696.74,-124.91 775.04,-108.19"/>
<polygon fill="black" stroke="black" points="775.83,-111.6 784.88,-106.08 774.37,-104.75 775.83,-111.6"/>
</g>
<!-- [root] aws_subnet.my_public_subnet (expand)&#45;&gt;[root] aws_vpc.my_vpc (expand) -->
<g id="edge20" class="edge">
<title>[root] aws_subnet.my_public_subnet (expand)&#45;&gt;[root] aws_vpc.my_vpc (expand)</title>
<path fill="none" stroke="black" d="M848.24,-143.7C848.79,-135.98 849.45,-126.71 850.06,-118.11"/>
<polygon fill="black" stroke="black" points="853.56,-118.33 850.78,-108.1 846.57,-117.83 853.56,-118.33"/>
</g>
<!-- [root] aws_vpc.my_vpc (expand)&#45;&gt;[root] provider[&quot;registry.terraform.io/hashicorp/aws&quot;] -->
<g id="edge21" class="edge">
<title>[root] aws_vpc.my_vpc (expand)&#45;&gt;[root] provider[&quot;registry.terraform.io/hashicorp/aws&quot;]</title>
<path fill="none" stroke="black" d="M833.46,-71.7C823.92,-62.79 812.16,-51.81 801.84,-42.19"/>
<polygon fill="black" stroke="black" points="804,-39.41 794.3,-35.14 799.22,-44.53 804,-39.41"/>
</g>
<!-- [root] provider[&quot;registry.terraform.io/hashicorp/aws&quot;] (close) -->
<g id="node17" class="node">
<title>[root] provider[&quot;registry.terraform.io/hashicorp/aws&quot;] (close)</title>
<ellipse fill="none" stroke="black" cx="884" cy="-378" rx="291.65" ry="18"/>
<text text-anchor="middle" x="884" y="-374.3" font-family="Times,serif" font-size="14.00">[root] provider[&quot;registry.terraform.io/hashicorp/aws&quot;] (close)</text>
</g>
<!-- [root] provider[&quot;registry.terraform.io/hashicorp/aws&quot;] (close)&#45;&gt;[root] aws_instance.bastion_host (expand) -->
<g id="edge22" class="edge">
<title>[root] provider[&quot;registry.terraform.io/hashicorp/aws&quot;] (close)&#45;&gt;[root] aws_instance.bastion_host (expand)</title>
<path fill="none" stroke="black" d="M903.37,-359.76C913.47,-350.01 925.47,-337.16 934,-324 946.6,-304.57 956.38,-280.14 962.72,-261.8"/>
<polygon fill="black" stroke="black" points="966.04,-262.89 965.88,-252.3 959.4,-260.68 966.04,-262.89"/>
</g>
<!-- [root] provider[&quot;registry.terraform.io/hashicorp/aws&quot;] (close)&#45;&gt;[root] aws_instance.my_ec2_instance (expand) -->
<g id="edge23" class="edge">
<title>[root] provider[&quot;registry.terraform.io/hashicorp/aws&quot;] (close)&#45;&gt;[root] aws_instance.my_ec2_instance (expand)</title>
<path fill="none" stroke="black" d="M698.52,-364.09C573.59,-354.81 404.88,-341.12 246.68,-324.15"/>
<polygon fill="black" stroke="black" points="246.6,-320.62 236.28,-323.03 245.85,-327.58 246.6,-320.62"/>
</g>
<!-- [root] provider[&quot;registry.terraform.io/hashicorp/aws&quot;] (close)&#45;&gt;[root] aws_route.private_subnet_route (expand) -->
<g id="edge24" class="edge">
<title>[root] provider[&quot;registry.terraform.io/hashicorp/aws&quot;] (close)&#45;&gt;[root] aws_route.private_subnet_route (expand)</title>
<path fill="none" stroke="black" d="M863.98,-359.7C853.87,-350.97 841.46,-340.24 830.48,-330.75"/>
<polygon fill="black" stroke="black" points="832.65,-327.99 822.79,-324.1 828.07,-333.29 832.65,-327.99"/>
</g>
<!-- [root] provider[&quot;registry.terraform.io/hashicorp/aws&quot;] (close)&#45;&gt;[root] aws_route.public_subnet_route (expand) -->
<g id="edge25" class="edge">
<title>[root] provider[&quot;registry.terraform.io/hashicorp/aws&quot;] (close)&#45;&gt;[root] aws_route.public_subnet_route (expand)</title>
<path fill="none" stroke="black" d="M969.33,-360.78C1108.44,-334.34 1383.41,-282.07 1531.3,-253.95"/>
<polygon fill="black" stroke="black" points="1532.12,-257.36 1541.29,-252.05 1530.81,-250.48 1532.12,-257.36"/>
</g>
<!-- [root] provider[&quot;registry.terraform.io/hashicorp/aws&quot;] (close)&#45;&gt;[root] aws_route_table_association.my_private_rt_association (expand) -->
<g id="edge26" class="edge">
<title>[root] provider[&quot;registry.terraform.io/hashicorp/aws&quot;] (close)&#45;&gt;[root] aws_route_table_association.my_private_rt_association (expand)</title>
<path fill="none" stroke="black" d="M786.53,-360.98C722.64,-350.49 638.86,-336.72 571.9,-325.72"/>
<polygon fill="black" stroke="black" points="572.16,-322.21 561.72,-324.04 571.02,-329.12 572.16,-322.21"/>
</g>
<!-- [root] provider[&quot;registry.terraform.io/hashicorp/aws&quot;] (close)&#45;&gt;[root] aws_route_table_association.my_public_rt_association (expand) -->
<g id="edge27" class="edge">
<title>[root] provider[&quot;registry.terraform.io/hashicorp/aws&quot;] (close)&#45;&gt;[root] aws_route_table_association.my_public_rt_association (expand)</title>
<path fill="none" stroke="black" d="M932.52,-360.15C1007.96,-333.96 1153.12,-283.57 1234.33,-255.37"/>
<polygon fill="black" stroke="black" points="1235.6,-258.63 1243.9,-252.05 1233.31,-252.02 1235.6,-258.63"/>
</g>
<!-- [root] root -->
<g id="node18" class="node">
<title>[root] root</title>
<ellipse fill="none" stroke="black" cx="884" cy="-450" rx="58.49" ry="18"/>
<text text-anchor="middle" x="884" y="-446.3" font-family="Times,serif" font-size="14.00">[root] root</text>
</g>
<!-- [root] root&#45;&gt;[root] provider[&quot;registry.terraform.io/hashicorp/aws&quot;] (close) -->
<g id="edge28" class="edge">
<title>[root] root&#45;&gt;[root] provider[&quot;registry.terraform.io/hashicorp/aws&quot;] (close)</title>
<path fill="none" stroke="black" d="M884,-431.7C884,-423.98 884,-414.71 884,-406.11"/>
<polygon fill="black" stroke="black" points="887.5,-406.1 884,-396.1 880.5,-406.1 887.5,-406.1"/>
</g>
</g>
</svg>
